<svg width="27" height="20" viewBox="0 0 27 20" fill="none" xmlns="http://www.w3.org/2000/svg">
<path d="M10.2858 18.75H7.87506V17.5H10.2858V9.72901L7.46106 8.41001L8.28906 7.33801L11.1125 8.65601C11.35 8.76751 11.5466 8.92472 11.6833 9.11248C11.82 9.30025 11.8922 9.51224 11.8929 9.72801V17.5C11.8929 17.8315 11.7236 18.1495 11.4222 18.3839C11.1208 18.6183 10.712 18.75 10.2858 18.75Z" fill="#1EA575"/>
<path d="M18.3214 18.75H15.9107C15.4845 18.75 15.0757 18.6183 14.7743 18.3839C14.4729 18.1495 14.3036 17.8315 14.3036 17.5V10.625H19.125C19.574 10.6253 20.0182 10.5524 20.4287 10.411C20.8393 10.2696 21.2072 10.0628 21.5086 9.80391C21.81 9.54506 22.0383 9.23991 22.1788 8.90818C22.3192 8.57645 22.3686 8.22551 22.3239 7.878C22.2162 7.24584 21.813 6.66665 21.1912 6.25106C20.5693 5.83547 19.7724 5.6126 18.9527 5.625H17.6799L17.5384 5.138C17.0781 3.56 15.1316 2.5 12.6964 2.5C11.7768 2.50242 10.8772 2.70869 10.1029 3.09462C9.3287 3.48056 8.71195 4.03016 8.325 4.679L8.07557 5.096L7.38129 5.024C7.27877 5.01082 7.17527 5.0028 7.07143 5C6.21895 5 5.40138 5.26339 4.79859 5.73223C4.19579 6.20107 3.85714 6.83696 3.85714 7.5C3.85714 8.16304 4.19579 8.79893 4.79859 9.26777C5.40138 9.73661 6.21895 10 7.07143 10V11.25C5.79271 11.25 4.56636 10.8549 3.66216 10.1517C2.75797 9.44839 2.25 8.49456 2.25 7.5C2.25 6.50544 2.75797 5.55161 3.66216 4.84835C4.56636 4.14509 5.79271 3.75 7.07143 3.75H7.13572C7.70126 2.99194 8.51217 2.36229 9.48776 1.92368C10.4633 1.48507 11.5696 1.25281 12.6964 1.25C15.6536 1.25 18.0733 2.486 18.9257 4.375H18.9514C20.1706 4.36404 21.3521 4.70324 22.2697 5.32763C23.1873 5.95203 23.7765 6.81774 23.9246 7.759C23.9903 8.2799 23.915 8.80572 23.7037 9.30264C23.4924 9.79956 23.1496 10.2566 22.6975 10.6443C22.2455 11.032 21.694 11.3418 21.0787 11.5537C20.4635 11.7657 19.7979 11.8751 19.125 11.875H15.9107V17.5H18.3214V18.75Z" fill="#1EA575"/>
</svg>
