<svg width="63" height="48" viewBox="0 0 63 48" fill="none" xmlns="http://www.w3.org/2000/svg">
<path d="M27.5625 32.121L17.7188 24.6195L20.5006 22.5L27.5625 27.879L42.4955 16.5L45.2812 18.6225L27.5625 32.121Z" fill="#1EA575"/>
<path d="M31.5 3C26.0487 3 20.7198 4.23163 16.1871 6.53914C11.6545 8.84665 8.12172 12.1264 6.03558 15.9636C3.94944 19.8009 3.40361 24.0233 4.46712 28.0969C5.53062 32.1705 8.15569 35.9123 12.0104 38.8492C15.8651 41.7861 20.7762 43.7862 26.1228 44.5965C31.4694 45.4068 37.0113 44.9909 42.0478 43.4015C47.0841 41.812 51.3888 39.1204 54.4174 35.667C57.446 32.2135 59.0625 28.1534 59.0625 24C59.0625 18.4305 56.1586 13.089 50.9897 9.15076C45.8207 5.21249 38.8101 3 31.5 3ZM31.5 42C26.8274 42 22.2597 40.9443 18.3746 38.9665C14.4896 36.9886 11.4615 34.1774 9.67336 30.8883C7.88524 27.5992 7.41738 23.98 8.32895 20.4884C9.24054 16.9967 11.4906 13.7894 14.7946 11.2721C18.0986 8.75473 22.3082 7.0404 26.891 6.34587C31.4737 5.65133 36.2239 6.00779 40.5409 7.37017C44.8578 8.73255 48.5475 11.0397 51.1435 13.9997C53.7394 16.9598 55.125 20.4399 55.125 24C55.125 28.7739 52.636 33.3523 48.2054 36.7279C43.7749 40.1036 37.7657 42 31.5 42Z" fill="#1EA575"/>
</svg>
