<svg width="21" height="20" viewBox="0 0 21 20" fill="none" xmlns="http://www.w3.org/2000/svg">
<path d="M7.99999 18.75H6.12499V17.5H7.99999V9.72901L5.80299 8.41001L6.44699 7.33801L8.64299 8.65601C8.82773 8.76751 8.98063 8.92472 9.08695 9.11248C9.19327 9.30025 9.24942 9.51224 9.24999 9.72801V17.5C9.24999 17.8315 9.1183 18.1495 8.88388 18.3839C8.64946 18.6183 8.33151 18.75 7.99999 18.75Z" fill="#1EA575"/>
<path d="M14.25 18.75H12.375C12.0435 18.75 11.7255 18.6183 11.4911 18.3839C11.2567 18.1495 11.125 17.8315 11.125 17.5V10.625H14.875C15.2242 10.6253 15.5697 10.5524 15.889 10.411C16.2083 10.2696 16.4945 10.0628 16.7289 9.80391C16.9634 9.54506 17.1409 9.23991 17.2502 8.90818C17.3594 8.57645 17.3978 8.22551 17.363 7.878C17.2793 7.24584 16.9657 6.66665 16.482 6.25106C15.9984 5.83547 15.3786 5.6126 14.741 5.625H13.751L13.641 5.138C13.283 3.56 11.769 2.5 9.875 2.5C9.15976 2.50242 8.46003 2.70869 7.85784 3.09462C7.25565 3.48056 6.77596 4.03016 6.475 4.679L6.281 5.096L5.741 5.024C5.66127 5.01082 5.58077 5.0028 5.5 5C4.83696 5 4.20107 5.26339 3.73223 5.73223C3.26339 6.20107 3 6.83696 3 7.5C3 8.16304 3.26339 8.79893 3.73223 9.26777C4.20107 9.73661 4.83696 10 5.5 10V11.25C4.50544 11.25 3.55161 10.8549 2.84835 10.1517C2.14509 9.44839 1.75 8.49456 1.75 7.5C1.75 6.50544 2.14509 5.55161 2.84835 4.84835C3.55161 4.14509 4.50544 3.75 5.5 3.75H5.55C5.98987 2.99194 6.62058 2.36229 7.37937 1.92368C8.13816 1.48507 8.99857 1.25281 9.875 1.25C12.175 1.25 14.057 2.486 14.72 4.375H14.74C15.6882 4.36404 16.6072 4.70324 17.3209 5.32763C18.0346 5.95203 18.4929 6.81774 18.608 7.759C18.6591 8.2799 18.6006 8.80572 18.4362 9.30264C18.2718 9.79956 18.0053 10.2566 17.6536 10.6443C17.302 11.032 16.8731 11.3418 16.3946 11.5537C15.916 11.7657 15.3984 11.8751 14.875 11.875H12.375V17.5H14.25V18.75Z" fill="#1EA575"/>
</svg>
