<svg width="27" height="20" viewBox="0 0 27 20" fill="none" xmlns="http://www.w3.org/2000/svg">
<mask id="mask0_3_2" style="mask-type:luminance" maskUnits="userSpaceOnUse" x="0" y="0" width="27" height="20">
<path d="M0.428101 0H26.1424V20H0.428101V0Z" fill="white"/>
</mask>
<g mask="url(#mask0_3_2)">
<path d="M8.46381 18.75C8.89006 18.75 9.29884 18.6183 9.60024 18.3839C9.90163 18.1495 10.071 17.8315 10.071 17.5C10.071 17.1685 9.90163 16.8505 9.60024 16.6161C9.29884 16.3817 8.89006 16.25 8.46381 16.25C8.03757 16.25 7.62879 16.3817 7.32739 16.6161C7.026 16.8505 6.85667 17.1685 6.85667 17.5C6.85667 17.8315 7.026 18.1495 7.32739 18.3839C7.62879 18.6183 8.03757 18.75 8.46381 18.75ZM19.7151 18.75C20.1413 18.75 20.5501 18.6183 20.8515 18.3839C21.1529 18.1495 21.3222 17.8315 21.3222 17.5C21.3222 17.1685 21.1529 16.8505 20.8515 16.6161C20.5501 16.3817 20.1413 16.25 19.7151 16.25C19.2889 16.25 18.8801 16.3817 18.5787 16.6161C18.2773 16.8505 18.108 17.1685 18.108 17.5C18.108 17.8315 18.2773 18.1495 18.5787 18.3839C18.8801 18.6183 19.2889 18.75 19.7151 18.75ZM4.43053 1.752C4.39398 1.61038 4.29549 1.48297 4.1518 1.39145C4.00811 1.29993 3.82811 1.24995 3.64239 1.25H0.428101V2.5H2.9841L6.06981 14.498C6.10632 14.6395 6.20462 14.7667 6.34805 14.8582C6.49147 14.9497 6.67117 14.9998 6.85667 15H21.321V13.75H7.51753L6.87467 11.25H21.3235C21.5064 11.2499 21.6839 11.2014 21.8265 11.1123C21.9691 11.0232 22.0683 10.8989 22.1078 10.76L23.9297 4.375H22.284L20.6781 10H6.55196L4.43053 1.752Z" fill="#C73B0F"/>
<path d="M14.8937 3.75V1.25H13.2866V3.75H10.0723V5H13.2866V7.5H14.8937V5H18.108V3.75H14.8937Z" fill="#C73B0F"/>
</g>
</svg>
