<svg width="167" height="128" viewBox="0 0 167 128" fill="none" xmlns="http://www.w3.org/2000/svg">
<path opacity="0.15" d="M11.0063 110.406C11.0063 111.467 17.0549 112.485 27.8199 113.235C38.5861 113.985 53.1882 114.406 68.4126 114.406C83.6383 114.406 98.2391 113.985 109.005 113.235C119.77 112.485 125.819 111.467 125.819 110.406C125.819 109.345 119.77 108.328 109.005 107.578C98.2391 106.828 83.6383 106.406 68.4126 106.406C53.1869 106.406 38.5861 106.828 27.8199 107.578C17.0549 108.328 11.0063 109.345 11.0063 110.406Z" fill="#260F08"/>
<path d="M156.54 24.22L95.0282 29.98L100.664 65.34L159.079 59.873C159.693 59.818 160.272 59.6235 160.741 59.3145C161.21 59.0055 161.548 58.5962 161.711 58.139C161.819 57.835 161.846 57.519 161.793 57.206L156.54 24.22Z" fill="#87635A"/>
<path d="M97.2788 44.142L158.791 38.388L160.663 50.166L99.1576 55.924L97.2788 44.142Z" fill="#AD8A85"/>
<path d="M111.728 36.78C111.616 36.1562 111.188 35.5913 110.537 35.207C109.886 34.8228 109.064 34.65 108.249 34.726C107.844 34.7657 107.453 34.8663 107.1 35.0219C106.746 35.1776 106.435 35.3853 106.187 35.6331C105.938 35.8809 105.755 36.1639 105.649 36.4659C105.544 36.7679 105.517 37.083 105.57 37.393L105.952 39.74C105.995 40.6332 105.599 41.5061 104.843 42.1866C104.087 42.8671 103.026 43.3058 101.869 43.4163C100.712 43.5268 99.5425 43.3009 98.5919 42.7833C97.6413 42.2657 96.9782 41.4938 96.7334 40.62L95.0282 29.953L113.92 13.073C139.039 12.38 158.453 16.673 159.601 23.873L161.271 34.406C161.301 34.5854 161.276 34.7675 161.198 34.9383C161.121 35.109 160.993 35.2637 160.825 35.3903C160.656 35.5169 160.452 35.6119 160.228 35.6678C160.003 35.7238 159.765 35.7393 159.532 35.713C158.248 35.5256 157.077 35.0286 156.188 34.2946C155.299 33.5606 154.739 32.628 154.591 31.633C154.49 31.0071 154.068 30.4377 153.418 30.0502C152.769 29.6627 151.946 29.4887 151.129 29.5665C150.312 29.6444 149.57 29.9676 149.064 30.4653C148.558 30.9629 148.331 31.5941 148.433 32.22L148.817 34.566C148.917 35.192 148.69 35.8228 148.185 36.321C147.679 36.818 146.936 37.1412 146.12 37.22C145.303 37.2973 144.48 37.1233 143.83 36.736C143.181 36.3483 142.76 35.7789 142.658 35.153C142.587 34.6859 142.336 34.2455 141.938 33.8879C141.539 33.5304 141.011 33.2718 140.42 33.145C139.829 33.0173 139.203 33.0267 138.62 33.1722C138.036 33.3176 137.523 33.5925 137.144 33.962C136.891 34.2071 136.705 34.488 136.594 34.7884C136.484 35.0889 136.452 35.4031 136.5 35.713L136.883 38.086C137.032 39.0198 136.816 39.9666 136.263 40.8064C135.71 41.6462 134.843 42.3412 133.774 42.8035C132.705 43.2658 131.481 43.4745 130.257 43.4032C129.034 43.3319 127.865 42.9838 126.899 42.403C126.258 42.0179 125.722 41.5398 125.321 40.9959C124.921 40.4519 124.665 39.8529 124.566 39.233L124.009 35.686C123.962 35.3744 123.834 35.0731 123.633 34.8C123.431 34.5269 123.16 34.2876 122.836 34.0962C122.512 33.9047 122.141 33.7651 121.745 33.6856C121.349 33.606 120.936 33.5882 120.531 33.633C119.711 33.713 118.965 34.0382 118.457 34.5379C117.949 35.0375 117.719 35.6709 117.817 36.3L118.026 37.473C118.127 38.0989 117.9 38.7301 117.395 39.2278C116.889 39.7254 116.146 40.0487 115.33 40.1265C114.513 40.2044 113.69 40.0304 113.04 39.6428C112.391 39.2553 111.969 38.6859 111.868 38.06L111.728 36.78Z" fill="#CAAFA7"/>
<path d="M105.779 28.966L150.382 24.806" stroke="white" stroke-width="0.974" stroke-linecap="round" stroke-linejoin="round"/>
<path d="M9.71995 51.793C8.46745 60.273 31.5683 69.233 61.2108 71.74C90.8532 74.246 116.112 69.58 117.365 61.073L112.215 96.566C110.962 105.046 85.808 109.9 56.0612 107.233C26.3143 104.566 3.21348 95.74 4.46598 87.18L9.71995 51.793Z" fill="#87635A"/>
<path d="M7.59721 65.953C6.34471 74.406 29.4455 83.393 59.2276 85.98C89.0097 88.566 114.094 83.793 115.346 75.313L113.607 87.1C112.354 95.58 87.2001 100.433 57.4532 97.766C27.7064 95.1 4.60557 86.22 5.85807 77.74L7.59721 65.953Z" fill="#AD8A85"/>
<path d="M79.372 42.78C74.9052 42.0873 70.401 41.5444 65.8724 41.153C34.5599 38.486 7.87514 43.046 6.72701 51.526L3.94412 70.406C3.86541 70.8738 3.90889 71.3488 4.07202 71.8036C4.23514 72.2583 4.51467 72.6837 4.89431 73.0548C5.27395 73.426 5.74613 73.7356 6.28335 73.9655C6.82058 74.1955 7.41212 74.3412 8.02354 74.3943C8.63495 74.4473 9.25403 74.4066 9.84474 74.2746C10.4354 74.1425 10.986 73.9217 11.4643 73.625C11.9426 73.3283 12.3391 72.9616 12.6307 72.5463C12.9224 72.131 13.1033 71.6754 13.163 71.206C13.2022 70.7225 13.3692 70.2501 13.654 69.8176C13.9387 69.385 14.3352 69.0014 14.8193 68.6899C15.3035 68.3785 15.8652 68.1457 16.4704 68.0058C17.0755 67.8659 17.7115 67.8217 18.3396 67.876C18.9677 67.9303 19.5748 68.0819 20.1241 68.3216C20.6734 68.5613 21.1534 68.8841 21.5349 69.2704C21.9164 69.6567 22.1914 70.0984 22.3433 70.5686C22.4952 71.0389 22.5208 71.5279 22.4185 72.006L21.3747 79.1C21.1441 80.6629 21.733 82.2321 23.0118 83.4622C24.2906 84.6924 26.1546 85.4827 28.1937 85.6595C30.2328 85.8363 32.28 85.3849 33.885 84.4048C35.4899 83.4246 36.5212 81.9959 36.7518 80.433C36.8203 79.969 37.0074 79.5199 37.3024 79.1112C37.5974 78.7026 37.9945 78.3426 38.4711 78.0516C38.9476 77.7606 39.4943 77.5445 40.0798 77.4154C40.6654 77.2864 41.2784 77.247 41.8838 77.2995C42.4892 77.352 43.0752 77.4954 43.6083 77.7216C44.1414 77.9477 44.6111 78.252 44.9908 78.6173C45.3704 78.9826 45.6524 79.4015 45.8208 79.8504C45.9892 80.2992 46.0406 80.769 45.972 81.233L45.6237 83.58C45.5245 84.5036 45.8973 85.4206 46.6636 86.1375C47.4298 86.8544 48.5295 87.315 49.7304 87.4222C50.9314 87.5294 52.1398 87.2747 53.1004 86.712C54.061 86.1492 54.6988 85.3224 54.8791 84.406L55.0526 83.206C55.2879 81.643 56.3237 80.2156 57.9321 79.2378C59.5405 78.2601 61.5897 77.8122 63.629 77.9925C65.6683 78.1729 67.5306 78.9667 68.8062 80.1995C70.0818 81.4323 70.6663 83.003 70.431 84.566L69.9091 88.086C69.8141 89.0077 70.189 89.9218 70.9549 90.6361C71.7208 91.3504 72.8182 91.8093 74.0164 91.9164C75.2146 92.0235 76.4203 91.7704 77.3801 91.2103C78.3399 90.6502 78.9791 89.8268 79.1633 88.913L80.3805 80.646C80.4646 80.3586 80.6866 80.1058 81.0025 79.938C81.3184 79.7702 81.7051 79.6995 82.0858 79.74C82.2891 79.7529 82.4869 79.7975 82.6669 79.8711C82.8469 79.9448 83.0053 80.0459 83.1325 80.1682C83.2596 80.2906 83.3527 80.4316 83.406 80.5825C83.4594 80.7335 83.4718 80.8912 83.4426 81.046C83.2798 82.5857 83.9049 84.1136 85.1858 85.3062C86.4668 86.4989 88.3029 87.2627 90.3056 87.4361C92.3083 87.6094 94.3204 87.1787 95.9161 86.235C97.5117 85.2913 98.5657 83.9088 98.8549 82.38L99.5516 77.66C99.7074 76.7341 100.332 75.8923 101.291 75.3164C102.249 74.7404 103.465 74.4764 104.675 74.5814C105.885 74.6865 106.993 75.1521 107.759 75.8777C108.526 76.6034 108.889 77.5309 108.771 78.46C108.671 79.3836 109.044 80.3006 109.81 81.0175C110.577 81.7344 111.676 82.195 112.877 82.3022C114.078 82.4094 115.287 82.1547 116.247 81.592C117.208 81.0292 117.846 80.2024 118.026 79.286L120.356 63.74C120.41 63.4279 120.382 63.1108 120.274 62.8071C120.166 62.5034 119.981 62.2191 119.728 61.9709C119.475 61.7227 119.161 61.5155 118.803 61.3614C118.445 61.2072 118.05 61.1092 117.642 61.073L57.5929 55.74L79.372 42.78Z" fill="#CAAFA7"/>
<path d="M77.1801 57.66L79.3719 42.78L57.418 55.953L77.1801 57.66Z" fill="#87635A"/>
<path d="M12.7807 52.06C11.9105 57.926 33.9689 64.646 62.0105 67.1C81.286 68.78 98.3683 68.006 107.484 65.446" stroke="white" stroke-width="0.974" stroke-linecap="round" stroke-linejoin="round"/>
</svg>
