<svg width="128" height="128" viewBox="0 0 128 128" fill="none" xmlns="http://www.w3.org/2000/svg">
<path opacity="0.15" d="M8.436 110.406C8.436 111.467 13.072 112.485 21.323 113.235C29.575 113.985 40.767 114.406 52.436 114.406C64.106 114.406 75.297 113.985 83.549 113.235C91.8 112.485 96.436 111.467 96.436 110.406C96.436 109.345 91.8 108.328 83.549 107.578C75.297 106.828 64.106 106.406 52.436 106.406C40.766 106.406 29.575 106.828 21.323 107.578C13.072 108.328 8.436 109.345 8.436 110.406Z" fill="#260F08"/>
<path d="M119.983 24.22L72.836 29.98L77.156 65.34L121.929 59.873C122.4 59.818 122.843 59.6235 123.203 59.3145C123.562 59.0055 123.821 58.5962 123.946 58.139C124.029 57.835 124.05 57.519 124.009 57.206L119.983 24.22Z" fill="#87635A"/>
<path d="M74.561 44.1419L121.708 38.3879L123.143 50.1659L76.001 55.9239L74.561 44.1419Z" fill="#AD8A85"/>
<path d="M85.636 36.78C85.5498 36.1561 85.2219 35.5912 84.723 35.207C84.2241 34.8227 83.5941 34.65 82.969 34.726C82.6588 34.7657 82.3595 34.8662 82.0883 35.0219C81.8171 35.1775 81.5793 35.3852 81.3885 35.633C81.1978 35.8808 81.0579 36.1638 80.9768 36.4659C80.8957 36.7679 80.875 37.0829 80.916 37.393L81.209 39.74C81.2414 40.6331 80.938 41.506 80.3587 42.1865C79.7793 42.867 78.9659 43.3058 78.079 43.4162C77.1922 43.5267 76.2961 43.3008 75.5675 42.7832C74.8389 42.2656 74.3306 41.4938 74.143 40.62L72.836 29.953L87.316 13.073C106.569 12.38 121.449 16.673 122.329 23.873L123.609 34.406C123.632 34.5853 123.613 34.7675 123.553 34.9382C123.494 35.109 123.396 35.2637 123.267 35.3902C123.138 35.5168 122.981 35.6118 122.809 35.6678C122.637 35.7238 122.455 35.7392 122.276 35.713C121.292 35.5256 120.394 35.0286 119.713 34.2946C119.031 33.5606 118.603 32.628 118.489 31.633C118.411 31.007 118.088 30.4377 117.59 30.0501C117.093 29.6626 116.461 29.4886 115.836 29.5665C115.21 29.6443 114.64 29.9676 114.253 30.4652C113.865 30.9628 113.691 31.594 113.769 32.22L114.063 34.566C114.14 35.1919 113.966 35.8228 113.579 36.321C113.191 36.818 112.622 37.1412 111.996 37.22C111.37 37.2972 110.739 37.1232 110.241 36.736C109.744 36.3482 109.421 35.7788 109.343 35.153C109.288 34.6858 109.096 34.2454 108.791 33.8879C108.485 33.5303 108.08 33.2717 107.627 33.145C107.175 33.0172 106.694 33.0267 106.247 33.1721C105.8 33.3176 105.407 33.5925 105.116 33.962C104.923 34.2071 104.78 34.4879 104.695 34.7884C104.611 35.0888 104.586 35.403 104.623 35.713L104.916 38.086C105.03 39.0198 104.865 39.9665 104.441 40.8063C104.017 41.6461 103.353 42.3412 102.534 42.8035C101.714 43.2657 100.776 43.4744 99.8381 43.4031C98.9 43.3318 98.0041 42.9838 97.264 42.403C96.7724 42.0179 96.3615 41.5397 96.0547 40.9958C95.7479 40.4519 95.5513 39.8529 95.476 39.233L95.049 35.686C95.013 35.3743 94.9149 35.073 94.7605 34.7999C94.606 34.5268 94.3984 34.2875 94.1498 34.0961C93.9012 33.9047 93.6168 33.7651 93.3133 33.6855C93.0099 33.606 92.6935 33.5881 92.383 33.633C91.7545 33.7129 91.183 34.0382 90.7934 34.5378C90.4037 35.0374 90.2274 35.6709 90.303 36.3L90.463 37.473C90.5408 38.0989 90.3669 38.7301 89.9793 39.2277C89.5918 39.7253 89.0224 40.0486 88.3965 40.1265C87.7706 40.2043 87.1394 40.0303 86.6418 39.6428C86.1441 39.2552 85.8208 38.6859 85.743 38.06L85.636 36.78Z" fill="#CAAFA7"/>
<path d="M81.076 28.966L115.263 24.806" stroke="white" stroke-width="0.974" stroke-linecap="round" stroke-linejoin="round"/>
<path d="M7.45001 51.793C6.49001 60.273 24.196 69.233 46.916 71.74C69.636 74.246 88.996 69.58 89.956 61.073L86.009 96.566C85.049 105.046 65.769 109.9 42.969 107.233C20.169 104.566 2.46301 95.74 3.42301 87.18L7.45001 51.793Z" fill="#87635A"/>
<path d="M5.82299 65.953C4.86299 74.406 22.569 83.393 45.396 85.98C68.223 88.566 87.449 83.793 88.409 75.313L87.076 87.1C86.116 95.58 66.836 100.433 44.036 97.766C21.236 95.1 3.52999 86.22 4.48999 77.74L5.82299 65.953Z" fill="#AD8A85"/>
<path d="M60.836 42.7799C57.4123 42.0872 53.9601 41.5444 50.489 41.1529C26.489 38.4859 6.03602 43.046 5.15602 51.526L3.02301 70.4059C2.96269 70.8737 2.99601 71.3488 3.12105 71.8035C3.24608 72.2583 3.46032 72.6836 3.75131 73.0548C4.04229 73.4259 4.4042 73.7355 4.81596 73.9655C5.22773 74.1954 5.68112 74.3412 6.14976 74.3942C6.61839 74.4473 7.09289 74.4066 7.54565 74.2745C7.9984 74.1424 8.42036 73.9216 8.78696 73.6249C9.15356 73.3282 9.45747 72.9615 9.68101 72.5462C9.90454 72.131 10.0432 71.6754 10.089 71.206C10.119 70.7224 10.2471 70.25 10.4653 69.8175C10.6835 69.385 10.9874 69.0013 11.3585 68.6899C11.7296 68.3784 12.1601 68.1457 12.624 68.0057C13.0878 67.8658 13.5752 67.8217 14.0567 67.876C14.5381 67.9303 15.0034 68.0819 15.4244 68.3216C15.8455 68.5613 16.2133 68.884 16.5058 69.2703C16.7982 69.6566 17.009 70.0983 17.1254 70.5686C17.2418 71.0388 17.2614 71.5279 17.183 72.0059L16.383 79.0999C16.2062 80.6629 16.6576 82.232 17.6377 83.4621C18.6179 84.6923 20.0466 85.4827 21.6095 85.6595C23.1724 85.8362 24.7416 85.3849 25.9717 84.4047C27.2019 83.4246 27.9922 81.9959 28.169 80.4329C28.2215 79.9689 28.365 79.5198 28.5911 79.1112C28.8172 78.7026 29.1215 78.3425 29.4868 78.0515C29.8521 77.7606 30.271 77.5444 30.7199 77.4153C31.1687 77.2863 31.6385 77.2469 32.1025 77.2994C32.5665 77.352 33.0157 77.4954 33.4243 77.7215C33.8329 77.9476 34.1929 78.252 34.4839 78.6172C34.7749 78.9825 34.9911 79.4015 35.1201 79.8503C35.2492 80.2991 35.2885 80.7689 35.236 81.233L34.969 83.58C34.893 84.5036 35.1788 85.4206 35.7661 86.1375C36.3534 86.8543 37.1962 87.315 38.1167 87.4222C39.0372 87.5293 39.9634 87.2747 40.6997 86.7119C41.436 86.1491 41.9248 85.3223 42.063 84.4059L42.196 83.206C42.3764 81.6429 43.1702 80.2155 44.403 79.2378C45.6358 78.2601 47.2065 77.8121 48.7695 77.9925C50.3326 78.1728 51.76 78.9667 52.7377 80.1995C53.7154 81.4322 54.1634 83.0029 53.983 84.566L53.583 88.0859C53.5102 89.0077 53.7975 89.9217 54.3846 90.636C54.9716 91.3503 55.8128 91.8092 56.7311 91.9163C57.6495 92.0234 58.5736 91.7703 59.3093 91.2102C60.0449 90.6501 60.5348 89.8267 60.676 88.913L61.609 80.646C61.6735 80.3585 61.8436 80.1058 62.0857 79.9379C62.3279 79.7701 62.6242 79.6994 62.916 79.7399C63.0719 79.7528 63.2235 79.7974 63.3614 79.8711C63.4994 79.9447 63.6208 80.0458 63.7183 80.1682C63.8157 80.2905 63.8871 80.4315 63.9279 80.5825C63.9688 80.7334 63.9784 80.8912 63.956 81.0459C63.8312 82.5857 64.3103 84.1135 65.2921 85.3062C66.2739 86.4988 67.6812 87.2627 69.2162 87.436C70.7512 87.6094 72.2935 87.1786 73.5165 86.2349C74.7395 85.2913 75.5473 83.9087 75.769 82.3799L76.303 77.66C76.4224 76.7341 76.9011 75.8923 77.6358 75.3163C78.3705 74.7403 79.3022 74.4763 80.2299 74.5814C81.1575 74.6864 82.0066 75.152 82.5939 75.8776C83.1812 76.6033 83.4596 77.5308 83.369 78.4599C83.293 79.3836 83.5788 80.3006 84.1661 81.0175C84.7534 81.7343 85.5962 82.195 86.5167 82.3022C87.4372 82.4093 88.3634 82.1547 89.0997 81.5919C89.836 81.0291 90.3248 80.2023 90.463 79.286L92.249 63.74C92.2901 63.4279 92.2687 63.1107 92.186 62.807C92.1034 62.5033 91.9611 62.2191 91.7675 61.9709C91.5739 61.7227 91.3329 61.5155 91.0585 61.3613C90.7841 61.2071 90.4817 61.1091 90.169 61.073L44.143 55.74L60.836 42.7799Z" fill="#CAAFA7"/>
<path d="M59.156 57.66L60.836 42.78L44.009 55.953L59.156 57.66Z" fill="#87635A"/>
<path d="M9.79599 52.0601C9.12899 57.9261 26.036 64.6461 47.529 67.1001C62.303 68.7801 75.396 68.0061 82.383 65.4461" stroke="white" stroke-width="0.974" stroke-linecap="round" stroke-linejoin="round"/>
</svg>
